<svg width="512" height="512" viewBox="0 0 512 512" fill="none" xmlns="http://www.w3.org/2000/svg">
<path d="M344.5 298C359.5 274.4 368.3 246.4 368.3 216.3C368.3 132.2 300.2 64 216.2 64C132.1 64 64 132.2 64 216.3C64 300.4 132.1 368.6 216.1 368.6C246.6 368.6 275 359.6 298.8 344.2L305.7 339.4L414.3 448L448 413.7L339.5 305.1L344.5 298ZM301.4 131.2C324.1 153.9 336.6 184.1 336.6 216.2C336.6 248.3 324.1 278.5 301.4 301.2C278.7 323.9 248.5 336.4 216.4 336.4C184.3 336.4 154.1 323.9 131.4 301.2C108.7 278.5 96.2 248.3 96.2 216.2C96.2 184.1 108.7 153.9 131.4 131.2C154.1 108.5 184.3 96 216.4 96C248.5 96 278.7 108.5 301.4 131.2Z" fill="#AFAFAF"/>
</svg>
